<svg width="20" height="21" viewBox="0 0 20 21" fill="none" xmlns="http://www.w3.org/2000/svg">
<path d="M6.58259 15.201C5.26716 15.201 4.2009 16.2753 4.2009 17.6004C4.2009 18.9257 5.26716 20 6.58259 20C7.89785 20 8.96411 18.9257 8.96411 17.6004C8.96275 16.2758 7.89734 15.2024 6.58259 15.201Z" fill="white"/>
<path d="M19.9134 5.30743C19.8301 5.19716 19.7006 5.13203 19.5631 5.13099H4.10462L3.78944 3.35339C3.59517 2.25912 2.74387 1.40332 1.65742 1.20983L0.514716 1.00686C0.276495 0.964301 0.0492189 1.12419 0.00680773 1.36421C-0.0354324 1.60405 0.123267 1.8332 0.361488 1.87576L1.50847 2.07873C2.2322 2.20795 2.79876 2.77878 2.92702 3.50777L4.47674 12.3164C4.65972 13.3703 5.56866 14.1389 6.63065 14.1379H15.8243C16.7902 14.141 17.6432 13.504 17.9214 12.572L19.979 5.70009C20.0223 5.56622 19.9977 5.41959 19.9134 5.30743Z" fill="white"/>
<path d="M15.7762 15.201C14.4608 15.201 13.3945 16.2753 13.3945 17.6004C13.3945 18.9257 14.4608 20 15.7762 20C17.0915 20 18.1578 18.9257 18.1578 17.6004C18.1564 16.2758 17.091 15.2024 15.7762 15.201Z" fill="white"/>
</svg>
